<svg width="32" height="32" viewBox="0 0 32 32" fill="none" xmlns="http://www.w3.org/2000/svg">
  <!-- Background circle -->
  <circle cx="16" cy="16" r="16" fill="#2E5D50"/>
  
  <!-- Globe icon -->
  <path d="M16 6C20.4183 6 24 9.58172 24 14C24 18.4183 20.4183 22 16 22C11.5817 22 8 18.4183 8 14C8 9.58172 11.5817 6 16 6Z" stroke="white" stroke-width="2" fill="none"/>
  
  <!-- Globe lines -->
  <path d="M16 6V22M8 14H24M10.5 9.5C12.5 11.5 14 13 16 14C18 13 19.5 11.5 21.5 9.5M10.5 18.5C12.5 16.5 14 15 16 14C18 15 19.5 16.5 21.5 18.5" stroke="white" stroke-width="1.5" fill="none"/>
  
  <!-- Link/connection dots -->
  <circle cx="12" cy="12" r="1.5" fill="white"/>
  <circle cx="20" cy="12" r="1.5" fill="white"/>
  <circle cx="12" cy="16" r="1.5" fill="white"/>
  <circle cx="20" cy="16" r="1.5" fill="white"/>
</svg>